<svg width="18" height="18" viewBox="0 0 18 18" fill="none" xmlns="http://www.w3.org/2000/svg">
<path d="M5.03268 0.666992H3.44935C1.62435 0.666992 0.666016 1.62533 0.666016 3.44199V5.02533C0.666016 6.84199 1.62435 7.80033 3.44102 7.80033H5.02435C6.84102 7.80033 7.79935 6.84199 7.79935 5.02533V3.44199C7.80768 1.62533 6.84935 0.666992 5.03268 0.666992Z" fill="white"/>
<path d="M14.5576 0.666992H12.9742C11.1576 0.666992 10.1992 1.62533 10.1992 3.44199V5.02533C10.1992 6.84199 11.1576 7.80033 12.9742 7.80033H14.5576C16.3742 7.80033 17.3326 6.84199 17.3326 5.02533V3.44199C17.3326 1.62533 16.3742 0.666992 14.5576 0.666992Z" fill="white"/>
<path d="M14.5576 10.1914H12.9742C11.1576 10.1914 10.1992 11.1497 10.1992 12.9664V14.5497C10.1992 16.3664 11.1576 17.3247 12.9742 17.3247H14.5576C16.3742 17.3247 17.3326 16.3664 17.3326 14.5497V12.9664C17.3326 11.1497 16.3742 10.1914 14.5576 10.1914Z" fill="white"/>
<path d="M5.03268 10.1914H3.44935C1.62435 10.1914 0.666016 11.1497 0.666016 12.9664V14.5497C0.666016 16.3747 1.62435 17.3331 3.44102 17.3331H5.02435C6.84102 17.3331 7.79935 16.3747 7.79935 14.5581V12.9747C7.80768 11.1497 6.84935 10.1914 5.03268 10.1914Z" fill="white"/>
</svg>
