<svg width="20" height="20" viewBox="0 0 20 20" fill="none" xmlns="http://www.w3.org/2000/svg">
<path d="M1.66602 8.33275L8.95818 2.49901C9.56685 2.01205 10.4318 2.01205 11.0405 2.49901L18.3327 8.33275" stroke="white" stroke-width="2" stroke-linecap="round" stroke-linejoin="round"/>
<path fill-rule="evenodd" clip-rule="evenodd" d="M4.56534 6.08385L7.89868 3.37551C8.90548 2.55746 9.4089 2.14844 10.0007 2.14844C10.5924 2.14844 11.0958 2.55746 12.1027 3.37551L15.436 6.08385C16.0412 6.57558 16.3437 6.82145 16.5056 7.16132C16.6673 7.50119 16.6673 7.89109 16.6673 8.67089V8.6709V11.6677C16.6673 14.8103 16.6673 16.3817 15.691 17.358C14.7147 18.3343 13.1433 18.3343 10.0007 18.3343C6.85795 18.3343 5.28661 18.3343 4.31029 17.358C3.33398 16.3817 3.33398 14.8103 3.33398 11.6677V8.6709C3.33398 7.8911 3.33398 7.5012 3.49575 7.16132C3.65752 6.82145 3.96012 6.57559 4.56531 6.08387L4.56534 6.08385ZM8.12565 12.7917C7.71144 12.7917 7.37565 13.1275 7.37565 13.5417C7.37565 13.9559 7.71144 14.2917 8.12565 14.2917H11.8757C12.2899 14.2917 12.6257 13.9559 12.6257 13.5417C12.6257 13.1275 12.2899 12.7917 11.8757 12.7917H8.12565Z" fill="white"/>
</svg>
