<svg width="20" height="20" viewBox="0 0 20 20" fill="none" xmlns="http://www.w3.org/2000/svg">
<path d="M12.725 4.59492C12.725 6.21197 11.4141 7.52285 9.79707 7.52285C8.18004 7.52285 6.86914 6.21197 6.86914 4.59492C6.86914 2.97787 8.18004 1.66699 9.79707 1.66699C11.4141 1.66699 12.725 2.97787 12.725 4.59492Z" fill="white" stroke="white" stroke-width="1.5"/>
<path d="M15.4273 14.5046C15.4273 15.4736 14.8785 16.4147 13.8631 17.1399C12.8491 17.8643 11.4135 18.3334 9.79665 18.3334C8.1798 18.3334 6.74422 17.8643 5.73014 17.1399C4.71476 16.4147 4.16602 15.4736 4.16602 14.5046C4.16602 13.5356 4.71476 12.5945 5.73014 11.8693C6.74422 11.1449 8.1798 10.6758 9.79665 10.6758C11.4135 10.6758 12.8491 11.1449 13.8631 11.8693C14.8785 12.5945 15.4273 13.5356 15.4273 14.5046Z" fill="white" stroke="white" stroke-width="1.5"/>
</svg>
